<mxfile host="Electron" modified="2023-12-08T23:42:40.483Z" agent="Mozilla/5.0 (Macintosh; Intel Mac OS X 10_15_7) AppleWebKit/537.36 (KHTML, like Gecko) draw.io/21.6.5 Chrome/114.0.5735.243 Electron/25.3.1 Safari/537.36" etag="HXFOdQZ7sPcHCJjvJ0U1" version="21.6.5" type="device">
  <diagram name="Page-1" id="Tdun2A25FBUq0IzI82OP">
    <mxGraphModel dx="1331" dy="795" grid="1" gridSize="10" guides="1" tooltips="1" connect="1" arrows="1" fold="1" page="1" pageScale="1" pageWidth="2339" pageHeight="3300" math="0" shadow="0">
      <root>
        <mxCell id="0" />
        <mxCell id="1" parent="0" />
        <mxCell id="56QgcLvvUBewhIRWZ5Vu-1" value="Ya_authenticate" style="swimlane;whiteSpace=wrap;html=1;" vertex="1" parent="1">
          <mxGeometry x="390" y="140" width="410" height="520" as="geometry" />
        </mxCell>
        <mxCell id="56QgcLvvUBewhIRWZ5Vu-5" value="Do login" style="ellipse;whiteSpace=wrap;html=1;" vertex="1" parent="56QgcLvvUBewhIRWZ5Vu-1">
          <mxGeometry x="40" y="90" width="120" height="80" as="geometry" />
        </mxCell>
        <mxCell id="56QgcLvvUBewhIRWZ5Vu-2" value="Regular User" style="shape=umlActor;verticalLabelPosition=bottom;verticalAlign=top;html=1;outlineConnect=0;" vertex="1" parent="1">
          <mxGeometry x="200" y="310" width="30" height="60" as="geometry" />
        </mxCell>
        <mxCell id="56QgcLvvUBewhIRWZ5Vu-6" value="" style="endArrow=none;html=1;rounded=0;entryX=0;entryY=0.5;entryDx=0;entryDy=0;exitX=1;exitY=0.3333333333333333;exitDx=0;exitDy=0;exitPerimeter=0;" edge="1" parent="1" source="56QgcLvvUBewhIRWZ5Vu-2" target="56QgcLvvUBewhIRWZ5Vu-5">
          <mxGeometry width="50" height="50" relative="1" as="geometry">
            <mxPoint x="300" y="350" as="sourcePoint" />
            <mxPoint x="350" y="300" as="targetPoint" />
          </mxGeometry>
        </mxCell>
      </root>
    </mxGraphModel>
  </diagram>
</mxfile>
